<?xml version="1.0"?>
<svg xmlns:rdf="http://www.w3.org/1999/02/22-rdf-syntax-ns#" xmlns="http://www.w3.org/2000/svg" xmlns:cc="http://creativecommons.org/ns#" xmlns:dc="http://purl.org/dc/elements/1.1/" xmlns:svg="http://www.w3.org/2000/svg" id="Layer_1" xml:space="preserve" overflow="visible" viewBox="0 0 227.521 85.789" version="1.1" enable-background="new 0 0 227.521 85.789">
<path id="path2486" stroke="#000" stroke-width=".75" fill="#ff0" d="m227.15 76.808c0 4.753-3.854 8.606-8.606 8.606h-209.56c-4.753 0-8.606-3.854-8.606-8.606v-67.827c0-4.753 3.853-8.606 8.606-8.606h209.56c4.753 0 8.606 3.853 8.606 8.606v67.827z"/>
<path id="path2488" stroke="#000" stroke-width=".75" fill="none" d="m218.64 71.757c0 4.044-3.566 7.325-7.962 7.325h-193.84c-4.396 0-7.959-3.281-7.959-7.325v-57.724c0-4.045 3.563-7.324 7.959-7.324h193.84c4.396 0 7.962 3.279 7.962 7.324v57.724z"/>
<path id="path2492" d="m61.052 47.986l-4.812 22.669-4.464 3.696-3-3.696 4.813-22.669 4.604-3.766 2.859 3.766zm2.162-9.973l-4.533 3.697-2.93-3.697 4.812-22.948 4.604-3.627 2.859 3.696-4.812 22.879z" fill="#f00"/><path id="path2494" d="m86.493 55.171l-0.349 1.813-5.789 4.743-3.697-4.743 0.35-1.813 5.789-4.743 3.696 4.743zm5.371-25.11l-0.419 1.813-5.719 4.812-3.767-4.812 0.418-1.813 5.72-4.743 3.767 4.743z" fill="#f00"/><path id="path2496" d="m105.04 47.847l-3.77 17.717-4.531 3.696-2.86-3.696 3.767-17.717 4.464-3.696 2.93 3.696zm-4.26 26.435l-2.925-3.767 4.535-3.696h16.25l2.93 3.696-4.53 3.767h-16.26zm6.35-36.409l-4.53 3.767-2.862-3.767 3.762-17.717 4.47-3.627 2.93 3.696-3.77 17.648zm5.44-18.902l-3-3.767 4.47-3.627h16.32l3 3.696-4.54 3.697h-16.25v0.001zm18.83 28.876l-3.76 17.717-4.54 3.696-2.93-3.696 3.77-17.717 4.53-3.696 2.93 3.696zm-1.6-27.621l4.53-3.696 2.93 3.696-3.76 17.577-4.47 3.767-3-3.767 3.77-17.577z" fill="#f00"/><path id="path2498" d="m146.52 47.847l-3.77 17.717-4.53 3.696-2.86-3.696 3.77-17.717 4.46-3.696 2.93 3.696zm-4.25 26.435l-2.93-3.767 4.53-3.696h16.25l2.93 3.696-4.53 3.767h-16.25zm6.34-36.409l-4.53 3.767-2.86-3.767 3.77-17.717 4.46-3.627 2.93 3.696-3.77 17.648zm5.45-18.902l-3-3.767 4.46-3.627h16.32l3 3.696-4.53 3.697h-16.25v0.001zm18.83 28.876l-3.77 17.717-4.53 3.696-2.93-3.696 3.76-17.717 4.54-3.696 2.93 3.696zm-1.61-27.621l4.54-3.696 2.93 3.696-3.77 17.577-4.46 3.767-3-3.767 3.76-17.577z" fill="#f00"/>
<metadata><rdf:RDF><cc:Work><dc:format>image/svg+xml</dc:format><dc:type rdf:resource="http://purl.org/dc/dcmitype/StillImage"/><cc:license rdf:resource="http://creativecommons.org/licenses/publicdomain/"/><dc:publisher><cc:Agent rdf:about="http://openclipart.org/"><dc:title>Openclipart</dc:title></cc:Agent></dc:publisher><dc:title>Digital Clock</dc:title><dc:date>2008-09-25T16:49:52</dc:date><dc:description>A collection of digital clocks showing every half hour. Suitable for educational purposes.</dc:description><dc:source>http://openclipart.org/detail/19411/digital-clock-by-manio1</dc:source><dc:creator><cc:Agent><dc:title>manio1</dc:title></cc:Agent></dc:creator><dc:subject><rdf:Bag><rdf:li>cartoon</rdf:li><rdf:li>clip art</rdf:li><rdf:li>clipart</rdf:li><rdf:li>clock</rdf:li><rdf:li>clocks</rdf:li><rdf:li>digital</rdf:li><rdf:li>digital clock</rdf:li><rdf:li>digital clocks</rdf:li><rdf:li>image</rdf:li><rdf:li>media</rdf:li><rdf:li>public domain</rdf:li><rdf:li>sign</rdf:li><rdf:li>svg</rdf:li><rdf:li>time</rdf:li></rdf:Bag></dc:subject></cc:Work><cc:License rdf:about="http://creativecommons.org/licenses/publicdomain/"><cc:permits rdf:resource="http://creativecommons.org/ns#Reproduction"/><cc:permits rdf:resource="http://creativecommons.org/ns#Distribution"/><cc:permits rdf:resource="http://creativecommons.org/ns#DerivativeWorks"/></cc:License></rdf:RDF></metadata></svg>
